<svg id="Layer_1" data-name="Layer 1" xmlns="http://www.w3.org/2000/svg" viewBox="0 0 262.44 206.51"><defs><style>.cls-1{fill:#fff;}</style></defs><title>Logo Blanco</title><polygon class="cls-1" points="41.45 30.36 41.23 51.84 99.8 24.53 100.06 -0.27 41.45 30.36"/><path class="cls-1" d="M107.89,163.5c-5,5.47-12.63,8.45-21.21,11.58a.09.09,0,0,1-.08,0c-12,4.79-29.1,3.68-39.8-4h0a83.83,83.83,0,0,1-7.12-5c-5.27-6.17-9.41-13.34-9.43-24l76.59,1c5.83,40.07,38.94,63.51,73,63.73a72.72,72.72,0,0,0,51.65-20.86V204.6h31V-.27h-31V80.22q-1.77-1.74-3.66-3.34c-.7-.66-1.38-1.26-2-1.82s-1.31-.94-2.19-1.53c-25.14-19.85-67.39-18.48-91.21,3.16-1.29,1-2.31,1.87-3,2.5l-.05,0-.8.82c5.25,5.76,11,23.58,11.52,32.56a66.46,66.46,0,0,1,6.33-8.76c6.46-7.58,20.28-18.88,39.58-18,1.8.08,23.88,1.47,37,20.49,2.11,3.07,10.07,15,7.94,31.22-2,15.09-11.42,24.17-14.9,27.42-3.09,2.88-12.8,11.68-28.13,13-2.6.22-21.12,1.49-35.6-12.69a46.33,46.33,0,0,1-13.27-27c-2.09-7.29-2.11-14.13-2.43-23.37-1.16-13.42-6.68-25.52-10.93-31.6l-.06-.1-.48-.69C82.15,33.82-2.49,60.75.06,130.78c-1.39,70.64,76.27,91,116.37,57.88,1.41-1.25,3.95-2.67,4.73-3.49C116.13,181.21,109.81,169.23,107.89,163.5Zm-.4-44.41-77.22-.78c.07-.47.15-.93.23-1.39h-.23a44.71,44.71,0,0,1,6.28-17.39c.66-.7,1.69-1.69,3.3-3.09,0,0,0,0,0,0C57,80.64,88.37,82.7,103.37,100.55l0,0c.73.8,1.42,1.62,2.1,2.47,0,0,0,0,0,0,4.09,4.91,5.7,10.38,3.7,14A7.19,7.19,0,0,1,107.49,119.09Z"/></svg>