<svg id="Capa_1" data-name="Capa 1" xmlns="http://www.w3.org/2000/svg" viewBox="0 0 597 247"><defs><style>.cls-1{fill:#cd1f32;}.cls-2{fill:#fff;}</style></defs><title>Mesa de trabajo 1</title><path d="M67.66,203.86a5.39,5.39,0,0,1,2.51,1.43,17.47,17.47,0,0,1,2.6,4.2l3.84,7.72H72.5l-3.37-7.14a11.24,11.24,0,0,0-2.62-3.93,5,5,0,0,0-3-.88H59.82v12H56V188.94h7.88c3.11,0,5.48.7,7.14,2.1a7.54,7.54,0,0,1,2.48,6.08A6.78,6.78,0,0,1,72,201.69,6.63,6.63,0,0,1,67.66,203.86Zm-7.84-11.78v10H64a5.88,5.88,0,0,0,4.09-1.23,4.86,4.86,0,0,0,1.35-3.77A4.79,4.79,0,0,0,68,193.38a6,6,0,0,0-4.16-1.3Z"/><path d="M97.82,204.87v1.7H82.73v.11c-.1,2.9.45,5,1.66,6.23a6.68,6.68,0,0,0,5.1,1.9,12.65,12.65,0,0,0,3.49-.53,22,22,0,0,0,3.88-1.61v3.47A24.89,24.89,0,0,1,93,217.36a16.62,16.62,0,0,1-3.57.4,10.05,10.05,0,0,1-7.72-3q-2.79-3-2.79-8.17a11.65,11.65,0,0,1,2.73-8.11,9.3,9.3,0,0,1,7.27-3,8,8,0,0,1,6.39,2.75A10.53,10.53,0,0,1,97.82,204.87Zm-3.48-1a6.75,6.75,0,0,0-1.6-3.79,4.91,4.91,0,0,0-3.95-1.6,5.56,5.56,0,0,0-4.15,1.66,5.9,5.9,0,0,0-1.78,3.75Z"/><path d="M120.06,216.14a12.71,12.71,0,0,1-2.89,1.22,11.53,11.53,0,0,1-3,.4,10.05,10.05,0,0,1-7.7-2.95q-2.78-3-2.77-8.18c0-3.49.92-6.21,2.77-8.18a10.06,10.06,0,0,1,7.7-3,11.52,11.52,0,0,1,3,.4,12.62,12.62,0,0,1,2.94,1.23v3.66a9.42,9.42,0,0,0-2.78-1.78,8.46,8.46,0,0,0-3.15-.55,6.16,6.16,0,0,0-5,2.12,11.27,11.27,0,0,0,0,12.11,6.18,6.18,0,0,0,5,2.13,9,9,0,0,0,3.26-.56,8.1,8.1,0,0,0,2.67-1.73Z"/><path d="M127,209.18V196h3.48v13.14a7.07,7.07,0,0,0,1,4.21,3.67,3.67,0,0,0,3.14,1.34,4.45,4.45,0,0,0,3.77-1.73,8.15,8.15,0,0,0,1.3-5V196h3.51v21.17h-3.51V214a6.66,6.66,0,0,1-2.52,2.79,7.24,7.24,0,0,1-3.74.94,5.65,5.65,0,0,1-4.85-2.13Q127,213.5,127,209.18Z"/><path d="M168.54,200.38a7.89,7.89,0,0,0-2.28-1.27,7.59,7.59,0,0,0-2.53-.4,6.11,6.11,0,0,0-5,2,8.91,8.91,0,0,0-1.73,5.9v10.55h-3.5V196H157v4.15a7.16,7.16,0,0,1,2.68-3.46,7.6,7.6,0,0,1,4.29-1.2,8.88,8.88,0,0,1,2.41.32,7.74,7.74,0,0,1,2.14,1Z"/><path d="M188.44,196.74v3.41a13.82,13.82,0,0,0-3-1.31,11.14,11.14,0,0,0-3.09-.43,6.42,6.42,0,0,0-3.53.77,3,3,0,0,0-.29,4.46,12,12,0,0,0,4.33,1.36l1.4.26a6.87,6.87,0,0,1,3.93,2,5.54,5.54,0,0,1,1.34,3.85,5.91,5.91,0,0,1-2.23,4.91,9.81,9.81,0,0,1-6.22,1.77,17.55,17.55,0,0,1-3.29-.33,30.25,30.25,0,0,1-3.73-1v-3.6a19.65,19.65,0,0,0,3.73,1.5,12.21,12.21,0,0,0,3.37.51,6,6,0,0,0,3.58-.94,3.1,3.1,0,0,0,1.27-2.62q0-2.43-4.64-3.36l-.15,0-1.31-.27a8.28,8.28,0,0,1-4.39-2,5.11,5.11,0,0,1-1.39-3.79,5.67,5.67,0,0,1,2.07-4.71,9.22,9.22,0,0,1,5.89-1.66,17.36,17.36,0,0,1,3.27.31A16.4,16.4,0,0,1,188.44,196.74Z"/><path d="M205,195.49a8.24,8.24,0,0,1,6.75,2.86q2.34,2.86,2.34,8.28t-2.33,8.28a9.42,9.42,0,0,1-13.5,0q-2.32-2.85-2.33-8.28t2.33-8.28A8.2,8.2,0,0,1,205,195.49Zm0,3a4.52,4.52,0,0,0-4,2.06,14.41,14.41,0,0,0,0,12.22,4.93,4.93,0,0,0,8.05,0,14.31,14.31,0,0,0,0-12.22A4.53,4.53,0,0,0,205,198.45Z"/><path d="M260,204.07v13.14h-3.5V204.07a7,7,0,0,0-1-4.2,3.65,3.65,0,0,0-3.14-1.35,4.45,4.45,0,0,0-3.76,1.73,8.11,8.11,0,0,0-1.32,5v12h-3.48V196h3.48v3.19a6.51,6.51,0,0,1,2.52-2.76,7.25,7.25,0,0,1,3.77-.94,5.67,5.67,0,0,1,4.84,2.13Q260,199.75,260,204.07Z"/><path d="M275.08,195.49a8.24,8.24,0,0,1,6.75,2.86q2.34,2.86,2.34,8.28c0,3.62-.77,6.38-2.33,8.28a9.42,9.42,0,0,1-13.5,0q-2.32-2.85-2.33-8.28t2.33-8.28A8.2,8.2,0,0,1,275.08,195.49Zm0,3a4.5,4.5,0,0,0-4,2.06,14.31,14.31,0,0,0,0,12.22,4.93,4.93,0,0,0,8.05,0,14.41,14.41,0,0,0,0-12.22A4.54,4.54,0,0,0,275.08,198.45Z"/><path d="M331.33,204.87v1.7h-15.1v.11c-.1,2.9.46,5,1.66,6.23a6.71,6.71,0,0,0,5.11,1.9,12.53,12.53,0,0,0,3.48-.53,21.69,21.69,0,0,0,3.88-1.61v3.47a24.45,24.45,0,0,1-3.83,1.22,16.62,16.62,0,0,1-3.57.4,10.07,10.07,0,0,1-7.73-3c-1.86-2-2.78-4.7-2.78-8.17a11.7,11.7,0,0,1,2.72-8.11,9.32,9.32,0,0,1,7.28-3,8,8,0,0,1,6.39,2.75A10.53,10.53,0,0,1,331.33,204.87Zm-3.49-1a6.68,6.68,0,0,0-1.6-3.79,4.9,4.9,0,0,0-3.95-1.6,5.54,5.54,0,0,0-4.14,1.66,5.85,5.85,0,0,0-1.78,3.75Z"/><path d="M353.37,204.07v13.14h-3.5V204.07a7,7,0,0,0-1-4.2,3.64,3.64,0,0,0-3.14-1.35,4.45,4.45,0,0,0-3.76,1.73,8.11,8.11,0,0,0-1.31,5v12h-3.49V196h3.49v3.19a6.43,6.43,0,0,1,2.51-2.76,7.25,7.25,0,0,1,3.77-.94,5.67,5.67,0,0,1,4.84,2.13Q353.38,199.75,353.37,204.07Z"/><path d="M376.91,216.14a12.53,12.53,0,0,1-2.89,1.22,11.48,11.48,0,0,1-3,.4,10,10,0,0,1-7.69-2.95q-2.78-3-2.78-8.18c0-3.49.93-6.21,2.78-8.18a10,10,0,0,1,7.69-3,11.6,11.6,0,0,1,3,.4,12.38,12.38,0,0,1,2.93,1.23v3.66a9.38,9.38,0,0,0-2.77-1.78,8.48,8.48,0,0,0-3.16-.55,6.14,6.14,0,0,0-5,2.12,11.27,11.27,0,0,0,0,12.11,6.16,6.16,0,0,0,5,2.13,9,9,0,0,0,3.26-.56,8.1,8.1,0,0,0,2.67-1.73Z"/><path d="M391.83,195.49a8.25,8.25,0,0,1,6.76,2.86c1.56,1.91,2.33,4.67,2.33,8.28s-.77,6.38-2.32,8.28a9.43,9.43,0,0,1-13.51,0q-2.32-2.85-2.33-8.28t2.33-8.28A8.22,8.22,0,0,1,391.83,195.49Zm0,3a4.52,4.52,0,0,0-4,2.06,14.41,14.41,0,0,0,0,12.22,4.93,4.93,0,0,0,8.05,0,14.41,14.41,0,0,0,0-12.22A4.53,4.53,0,0,0,391.83,198.45Z"/><path d="M423.42,204.07v13.14h-3.5V204.07a7.1,7.1,0,0,0-1-4.2,3.67,3.67,0,0,0-3.15-1.35,4.45,4.45,0,0,0-3.76,1.73,8.18,8.18,0,0,0-1.31,5v12h-3.49V196h3.49v3.19a6.51,6.51,0,0,1,2.52-2.76,7.21,7.21,0,0,1,3.76-.94,5.66,5.66,0,0,1,4.84,2.13Q423.42,199.75,423.42,204.07Z"/><path d="M438.5,190v6h7.91v2.71H438.5v11.51a4.68,4.68,0,0,0,.89,3.28,4.19,4.19,0,0,0,3.1.93h3.92v2.78h-4.26q-3.91,0-5.53-1.57c-1.07-1-1.61-2.85-1.61-5.42V198.71h-5.66V196H435v-6Z"/><path d="M472.09,200.38a7.72,7.72,0,0,0-2.27-1.27,7.6,7.6,0,0,0-2.54-.4,6.13,6.13,0,0,0-5,2,8.91,8.91,0,0,0-1.72,5.9v10.55h-3.5V196h3.5v4.15a7.1,7.1,0,0,1,2.68-3.46,7.55,7.55,0,0,1,4.29-1.2,8.76,8.76,0,0,1,2.4.32,7.6,7.6,0,0,1,2.14,1Z"/><path d="M493.63,205.11v12.1h-3.51v-3.14a7.16,7.16,0,0,1-2.81,2.79,8.68,8.68,0,0,1-4.12.9,7.25,7.25,0,0,1-5.17-1.82,7.23,7.23,0,0,1,.45-10.28c1.58-1.22,3.91-1.84,7-1.84h4.67v-.54a4.78,4.78,0,0,0-1.29-3.69,5.94,5.94,0,0,0-4.05-1.14,13.37,13.37,0,0,0-3.6.51,16,16,0,0,0-3.54,1.49V197a25.2,25.2,0,0,1,3.71-1.11,17.2,17.2,0,0,1,3.43-.37,11.62,11.62,0,0,1,4.5.78,7.07,7.07,0,0,1,3,2.33,5.83,5.83,0,0,1,1,2.34A20.5,20.5,0,0,1,493.63,205.11Zm-6.76,1.44h-1.16a8.1,8.1,0,0,0-4.59,1.07,3.63,3.63,0,0,0-1.55,3.19,3.85,3.85,0,0,0,1.16,3,4.59,4.59,0,0,0,3.2,1.06,5.57,5.57,0,0,0,4.53-2,8.53,8.53,0,0,0,1.66-5.52v-.78Z"/><path d="M513.17,198.71v-11h3.49v29.46h-3.49v-2.67a6,6,0,0,1-2.32,2.4,6.64,6.64,0,0,1-3.34.82,7.11,7.11,0,0,1-6.05-3q-2.2-3-2.21-8.23c0-3.44.74-6.15,2.22-8.11a7.13,7.13,0,0,1,6-2.95,6.73,6.73,0,0,1,3.37.83A5.75,5.75,0,0,1,513.17,198.71Zm-10.25,7.92a11.65,11.65,0,0,0,1.29,6.11,4.55,4.55,0,0,0,7.64,0,14.75,14.75,0,0,0,0-12.2,4.57,4.57,0,0,0-7.64,0A11.71,11.71,0,0,0,502.92,206.63Z"/><path d="M531.94,195.49a8.24,8.24,0,0,1,6.75,2.86q2.34,2.86,2.34,8.28t-2.33,8.28a9.42,9.42,0,0,1-13.5,0c-1.56-1.9-2.33-4.66-2.33-8.28s.77-6.37,2.33-8.28A8.2,8.2,0,0,1,531.94,195.49Zm0,3a4.52,4.52,0,0,0-4,2.06,14.41,14.41,0,0,0,0,12.22,4.93,4.93,0,0,0,8.05,0,14.41,14.41,0,0,0,0-12.22A4.53,4.53,0,0,0,531.94,198.45Z"/><path class="cls-1" d="M135.48,156.32H80.16c-7.47,0-10.46-5-10.46-11a20.68,20.68,0,0,1,2.74-9.22L123,55.65C137.47,32.48,143,29.24,149.19,29.24c6,0,9.46,4,9.46,11.46v93.19h10c7.23,0,11,5.73,11,11.47,0,5.48-3.74,11-11,11h-10V169c0,7.47-6,11.21-11.71,11.21-6,0-11.46-3.74-11.46-11.21Zm0-83.73-38.62,61.3h38.62Z"/><path class="cls-1" d="M243.87,30c31.65,0,53.32,25.16,53.32,75.25s-21.18,75-53.32,75c-31.89,0-53.07-24.92-53.07-75S212.22,30,243.87,30Zm0,22.17c-15,0-29.9,17-29.9,53.08s14.45,53.07,29.9,53.07c15.7,0,30.15-16.94,30.15-53.07S259.07,52.16,243.87,52.16Z"/><path class="cls-1" d="M373.44,156.32H318.12c-7.47,0-10.46-5-10.46-11a20.68,20.68,0,0,1,2.74-9.22L361,55.65c14.45-23.17,19.94-26.41,26.16-26.41,6,0,9.47,4,9.47,11.46v93.19h10c7.23,0,11,5.73,11,11.47,0,5.48-3.73,11-11,11h-10V169c0,7.47-6,11.21-11.71,11.21-6,0-11.46-3.74-11.46-11.21Zm0-83.73-38.62,61.3h38.62Z"/><path d="M521.61,67.75c-9.05.51-27.05,2.38-38.15,9.18a2.53,2.53,0,0,0-1.2,2.18v60.1a2.61,2.61,0,0,0,3.84,2.23c11.43-5.76,28-7.32,36.13-7.75a5.15,5.15,0,0,0,4.95-5.07V72.82A5.17,5.17,0,0,0,521.61,67.75Zm-45.84,9.18c-11.1-6.8-29.09-8.67-38.14-9.18a5.17,5.17,0,0,0-5.58,5.07v55.8a5.15,5.15,0,0,0,5,5.07c8.17.43,24.7,2,36.13,7.75a2.6,2.6,0,0,0,3.83-2.22V79.08A2.48,2.48,0,0,0,475.77,76.93Z"/><path class="cls-2" d="M512.09,103l7.35-7.35a2.31,2.31,0,0,0,0-3.26l-1.63-1.63a2.3,2.3,0,0,0-3.27,0L507.2,98.1l-7.34-7.34a2.3,2.3,0,0,0-3.27,0L495,92.39a2.31,2.31,0,0,0,0,3.26L502.3,103,495,110.34a2.31,2.31,0,0,0,0,3.26l1.63,1.63a2.3,2.3,0,0,0,3.27,0l7.34-7.34,7.34,7.34a2.3,2.3,0,0,0,3.27,0l1.63-1.63a2.31,2.31,0,0,0,0-3.26Z"/><path class="cls-2" d="M466.87,114.06l-5-5a1.19,1.19,0,0,0-.85-.35h-.81a10.45,10.45,0,1,0-1.8,1.79v.82a1.19,1.19,0,0,0,.35.84l5,5a1.21,1.21,0,0,0,1.69,0l1.41-1.42A1.2,1.2,0,0,0,466.87,114.06Zm-14.81-5.32a6.39,6.39,0,1,1,6.38-6.38A6.37,6.37,0,0,1,452.06,108.74Z"/></svg>